<?xml version="1.0" encoding="utf-8"?>
<!-- Generator: Adobe Illustrator 28.0.0, SVG Export Plug-In . SVG Version: 6.00 Build 0)  -->
<svg version="1.1" id="Layer_1" xmlns:serif="http://www.serif.com/"
	 xmlns="http://www.w3.org/2000/svg" xmlns:xlink="http://www.w3.org/1999/xlink" x="0px" y="0px" viewBox="0 0 1948.2 438.7"
	 style="enable-background:new 0 0 1948.2 438.7;" xml:space="preserve">
<style type="text/css">
	.st0{fill:none;}
	.st1{enable-background:new    ;}
	.st2{fill:#FFFFFF;}
	.st3{font-family:'MyriadPro-BoldIt';}
	.st4{font-size:154.0274px;}
	.st5{opacity:0.8706;}
	.st6{fill:#CAD265;}
	.st7{fill:#1B8CA8;}
	.st8{fill:#C5CE50;}
	.st9{clip-path:url(#SVGID_00000121272614135167294090000014872498027976052870_);}
	.st10{clip-path:url(#SVGID_00000125588267431229661230000006512599841630814142_);}
	.st11{fill:url(#SVGID_00000127729982871779430630000006485879595398499510_);}
	.st12{fill:#795C3A;}
	.st13{fill:url(#SVGID_00000036228551931273830240000015563349215921177488_);}
</style>
<rect id="Artboard1" y="7.3" class="st0" width="1366" height="431.4"/>
<g transform="matrix(0.75,0,0,0.75,-76.9303,6)">
	<g class="st1">
		<text transform="matrix(1.3333 0 0 1.3333 877.0549 237.717)" class="st2 st3 st4">w</text>
	</g>
	<g class="st1">
		<text transform="matrix(1.3333 0 0 1.3333 1025.5372 237.717)" class="st2 st3 st4">e</text>
	</g>
	<g class="st1">
		<text transform="matrix(1.3333 0 0 1.3333 1128.4266 237.717)" class="st2 st3 st4">b</text>
	</g>
	<g class="st1">
		<text transform="matrix(1.3333 0 0 1.3333 1246.1063 237.717)" class="st2 st3 st4">-</text>
	</g>
	<g class="st5">
		<text transform="matrix(1.3333 0 0 1.3333 1312.23 237.717)" class="st2 st3 st4">base</text>
	</g>
	<g class="st1">
		<text transform="matrix(1.3333 0 0 1.3333 1730.1597 237.717)" class="st2 st3 st4">d</text>
	</g>
	<g class="st5">
		<text transform="matrix(1.3333 0 0 1.3333 1845.1675 237.717)" class="st2 st3 st4"> inquir</text>
	</g>
	<g class="st1">
		<text transform="matrix(1.3333 0 0 1.3333 2417.9448 237.717)" class="st2 st3 st4">y</text>
	</g>
	<g class="st1">
		<text transform="matrix(1.3333 0 0 1.3333 877.0549 451.831)" class="st2 st3 st4">scienc</text>
	</g>
	<g class="st1">
		<text transform="matrix(1.3333 0 0 1.3333 1412.6597 451.831)" class="st2 st3 st4">e</text>
	</g>
	<g class="st5">
		<text transform="matrix(1.3333 0 0 1.3333 1515.5477 451.831)" class="st2 st3 st4"> en</text>
	</g>
	<g class="st1">
		<text transform="matrix(1.3333 0 0 1.3333 1769.3876 451.831)" class="st2 st3 st4">v</text>
	</g>
	<g class="st5">
		<text transform="matrix(1.3333 0 0 1.3333 1874.5333 451.831)" class="st2 st3 st4">ironment</text>
	</g>
</g>
<g id="Layer_1_00000011734437605782988410000003486619262870588051_">
	<g id="image" transform="matrix(1.00042,0,0,1.00094,2.48,2.72)">
		
			<image style="overflow:visible;enable-background:new    ;" width="95" height="85" id="_Image1" xlink:href="F4B3F4669FDF88AF.png"  transform="matrix(5.3403 0 0 5.3431 -5.1556 -7.3266)">
		</image>
	</g>
	<g id="image1" transform="matrix(1.00042,0,0,1.00094,2.48,2.72)" serif:id="image">
		
			<image style="overflow:visible;enable-background:new    ;" width="95" height="85" id="_Image1_00000058547697144809559550000015185445498451619768_" xlink:href="F4B3F4669FDF88AD.png"  transform="matrix(5.3403 0 0 5.3431 -5.1556 -7.3266)">
		</image>
	</g>
	<path class="st6" d="M480.9,210.6c-15.1,129.6-99.8,205.5-235,216.8c-72.9,6-249.7-26.8-224.2-34c30.9-8.6,73.7-16.2,73.7-16.2
		C51.3,352.5,23.2,292.8,11,210.6C-13.4,49.3,133.3,16.6,245.8,7.8C439.5-7.6,496.2,80.3,480.9,210.6L480.9,210.6z"/>
	<path class="st7" d="M473,210.9c-14.6,124.6-96.4,197.7-227.2,208.4c-70.4,5.8-218.9-19.2-202.6-23.2c30.1-7.4,69.1-16.7,69.1-16.7
		C53.9,344.1,30.8,289.9,19,210.9C-4.7,55.8,137.1,24.3,245.8,15.8C433,1.1,487.7,85.6,473,210.9z"/>
	<path class="st8" d="M245.8,76c0,0,54.1,1.5,96.8,18.1c-43.2-0.3-69.7,18.7-69.7,18.7L245.8,76L245.8,76z"/>
	<path class="st6" d="M230.7,263.2c-0.5,4.5-6.3,7.3-12.5,6.6c-6.7-0.3-12.3-6.2-12.3-11.4c-0.8-5.6,5.7-7.8,13.1-6.1
		C226.9,253.7,231.9,259.1,230.7,263.2z"/>
	<path class="st6" d="M254.7,238.3c3.5,6.1,1.3,14.7-10.9,16.5c-10.9,1.7-23.4-0.6-24-6.8c-0.7-5.3,5.3-12.9,14.6-15.6
		C242.4,230,251.2,231.4,254.7,238.3z"/>
	<path class="st6" d="M207.4,271.7c-0.4,4.3-4.6,5.6-8.9,4.1c-4.7-1.3-8.4-5.3-8.3-8c-0.4-3.1,4.3-5.1,9.4-4.8c0.2,0,0.3,0,0.5,0
		c4.1,0,7.4,3.3,7.4,7.4C207.5,270.9,207.5,271.3,207.4,271.7z"/>
	<path class="st2" d="M120.8,262.5c11.1-9.6,27.5-12.8,39,0.7c3.8,3.2,18.9,30.2-0.3,45.4c-11.5,8.4-28.9-0.9-40-12.8
		S109.5,272.4,120.8,262.5z"/>
	<path class="st2" d="M364.1,178.7c-22.2-10.5-35.8-30.8-28-50.7s31-38.7,52.2-36.8c21.2,1.8,36.3,30.2,29.4,58.7
		S386.1,189,364.1,178.7L364.1,178.7z"/>
	<g>
		<g>
			<defs>
				<path id="SVGID_1_" d="M473,210.9c-14.6,124.6-96.4,197.7-227.2,208.4c-70.4,5.8-218.9-19.2-202.6-23.2
					c30.1-7.4,69.1-16.7,69.1-16.7C53.9,344.1,30.8,289.9,19,210.9C-4.7,55.8,137.1,24.3,245.8,15.8C433,1.1,487.7,85.6,473,210.9z"
					/>
			</defs>
			<clipPath id="SVGID_00000173155253894329328900000005923822796601948088_">
				<use xlink:href="#SVGID_1_"  style="overflow:visible;"/>
			</clipPath>
			<g style="clip-path:url(#SVGID_00000173155253894329328900000005923822796601948088_);">
				<path id="White" class="st2" d="M411.1,39.5c131.4,78.8-77.4,383.9-77.4,383.9s-56,21.5-93.8-16.3c-5.6-5.6-23.4-14.9-27.7-23.4
					C271.2,390.7,510.4,166.5,411.1,39.5z"/>
				<path id="White-2" class="st2" d="M19,246.7c45.8,27.9,132.8,116.7,139.9,175c0.5,4.4,8.6,1.1,9.8,5.7
					c0.8-9.7-2.2-33.5,29.9-31.4s70.4,33.2,70.4,33.2s-158.9-139.5-248.2-188C15.3,238.4,21.2,231.5,19,246.7z"/>
			</g>
		</g>
	</g>
	<path class="st6" d="M55.4,143.8c3.1-57.8,54.7-91.2,99.7-92.1c45-0.9,96.1,24.4,96.1,24.4s55.2,3.1,91.7,17.8
		c-26.2-2.3-52,8.9-52,8.9s18.1,16,25.3,31.6c6.7,15.6,14.7,33.4-6.6,60.3c-15.2,18-63.6,48.3-117.3,52.5
		c-45.6,2.4-64.5-7-82.5-16.3C93.1,222.6,55.4,192.8,55.4,143.8z"/>
	<g>
		<defs>
			<path id="SVGID_00000137106510317354969410000006779827006328467349_" d="M480.9,210.6c-15.1,129.6-99.8,205.5-235,216.8
				c-72.9,6-249.7-26.8-224.2-34c30.9-8.6,73.7-16.2,73.7-16.2C51.3,352.5,23.2,292.8,11,210.6C-13.4,49.3,133.3,16.6,245.8,7.8
				C439.5-7.6,496.2,80.3,480.9,210.6L480.9,210.6z"/>
		</defs>
		<clipPath id="SVGID_00000053520912654888470240000016801616119455238538_">
			<use xlink:href="#SVGID_00000137106510317354969410000006779827006328467349_"  style="overflow:visible;"/>
		</clipPath>
		<g style="clip-path:url(#SVGID_00000053520912654888470240000016801616119455238538_);">
			
				<linearGradient id="SVGID_00000147906455913346668540000016635351310328979593_" gradientUnits="userSpaceOnUse" x1="-9.618532e-02" y1="607.0304" x2="1.0175" y2="607.0304" gradientTransform="matrix(80.3074 261.0249 261.0249 -80.3074 -158255.4531 48760.9102)">
				<stop  offset="0" style="stop-color:#FFFFFF;stop-opacity:0.498"/>
				<stop  offset="0.11" style="stop-color:#FFFFFF;stop-opacity:0.498"/>
				<stop  offset="0.34" style="stop-color:#FFFFFF;stop-opacity:0.3176"/>
				<stop  offset="0.58" style="stop-color:#FFFFFF;stop-opacity:0.149"/>
				<stop  offset="0.78" style="stop-color:#FFFFFF;stop-opacity:3.921570e-02"/>
				<stop  offset="0.89" style="stop-color:#FFFFFF;stop-opacity:0"/>
				<stop  offset="1" style="stop-color:#FFFFFF;stop-opacity:0"/>
			</linearGradient>
			<path style="fill:url(#SVGID_00000147906455913346668540000016635351310328979593_);" d="M469.4,109.8
				C492,187.4,382,217.6,266.3,263c-107.4,42.1-237.1,47.3-257-61C-5.6,121,42,21.2,207.1,8.9C331.2-0.3,438.5,3.7,469.4,109.8z"/>
		</g>
	</g>
	<path class="st12" d="M93.7,185.8l-15.2-64.1H94l4.8,26.3c1.4,7.7,2.7,16,3.8,22.4h0.2c1-6.9,2.7-14.6,4.2-22.6l5.3-26.1h15.4
		l5.1,27c1.4,7.5,2.5,14.3,3.4,21.4h0.2c1-7.1,2.4-14.6,3.7-22.3l5.3-26.1h14.7l-16.5,64.1h-15.8l-5.3-27.5
		c-1.2-6.5-2.3-12.4-3-19.8h-0.2c-1.1,7.2-2.2,13.3-3.7,19.8l-6.1,27.6C109.5,185.8,93.7,185.8,93.7,185.8z"/>
	<rect x="167.6" y="121.9" class="st12" width="14.4" height="64.1"/>
	<path class="st12" d="M195.1,170.9c5,2.5,10.4,3.9,16,4c6.6,0,10.1-2.7,10.1-6.9c0-4.3-3-6.3-10.7-8.9c-10.7-3.8-17.6-9.7-17.6-19
		c0-10.9,9.2-19.2,24.2-19.2c5.6-0.2,11.2,0.9,16.3,3.2l-3.3,11.5c-4.2-2-8.7-3.1-13.3-3c-6.3,0-9.3,2.9-9.3,6.2
		c0,4.1,3.5,5.9,11.9,9c11.3,4.2,16.5,10.1,16.5,19.1c0,10.7-8.2,19.8-25.7,19.8c-6.3,0-12.5-1.3-18.1-4L195.1,170.9L195.1,170.9z"
		/>
	<path class="st12" d="M283.9,158.8h-23.5V174h26.3v11.9h-40.8v-64.1h39.4v11.9h-25V147h23.5L283.9,158.8L283.9,158.8z"/>
	
		<linearGradient id="SVGID_00000058565618899111676520000010971238380891875999_" gradientUnits="userSpaceOnUse" x1="-0.2157" y1="607.0552" x2="0.898" y2="607.0552" gradientTransform="matrix(38.087 86.9821 86.9821 -38.087 -52667.6992 23199.5586)">
		<stop  offset="0" style="stop-color:#FFFFFF;stop-opacity:0.8"/>
		<stop  offset="0.11" style="stop-color:#FFFFFF;stop-opacity:0.8"/>
		<stop  offset="0.17" style="stop-color:#FFFFFF;stop-opacity:0.6667"/>
		<stop  offset="0.26" style="stop-color:#FFFFFF;stop-opacity:0.4863"/>
		<stop  offset="0.35" style="stop-color:#FFFFFF;stop-opacity:0.3373"/>
		<stop  offset="0.44" style="stop-color:#FFFFFF;stop-opacity:0.2196"/>
		<stop  offset="0.54" style="stop-color:#FFFFFF;stop-opacity:0.1176"/>
		<stop  offset="0.65" style="stop-color:#FFFFFF;stop-opacity:4.705880e-02"/>
		<stop  offset="0.76" style="stop-color:#FFFFFF;stop-opacity:7.843140e-03"/>
		<stop  offset="0.89" style="stop-color:#FFFFFF;stop-opacity:0"/>
		<stop  offset="1" style="stop-color:#FFFFFF;stop-opacity:0"/>
	</linearGradient>
	<path style="fill:url(#SVGID_00000058565618899111676520000010971238380891875999_);" d="M236.5,90.3c27.1,35.4-20.3,23-61.7,35.2
		c-27.5,12.1-74.7,64.1-105.1,27.7C59,121.9,83.5,76,132.6,61.9C173.4,52.3,210.5,64.4,236.5,90.3z"/>
</g>
</svg>
